<svg width="37" height="37" viewBox="0 0 37 37" fill="none" xmlns="http://www.w3.org/2000/svg">
<path fill-rule="evenodd" clip-rule="evenodd" d="M18.9665 4.75663C19.5073 4.42103 20.1193 4.12423 20.6941 3.92623C21.8785 3.51903 22.3297 3.68103 22.4097 3.46263L23.4137 0.698631C22.7281 0.609431 21.1397 1.03303 20.3721 1.31583C17.2001 2.48303 15.1329 4.98623 13.9365 7.85703C13.2025 9.61743 12.9429 11.3426 12.9125 13.215C12.8065 14.4846 13.3061 17.1206 14.1665 19.055C14.1193 18.5278 13.8533 17.6602 13.7641 17.0514C13.3701 13.8706 13.9673 10.5066 15.7057 7.94783C16.5589 6.69263 17.5129 5.65703 18.9665 4.75663Z" fill="#565ADD"/>
<path fill-rule="evenodd" clip-rule="evenodd" d="M23.7255 5.85762C24.3483 5.72842 25.0247 5.65962 25.6335 5.67122C26.8855 5.69482 27.2539 6.00202 27.4035 5.82402C28.0339 5.07362 28.6647 4.32322 29.2947 3.57282C28.6819 3.25362 27.0451 3.10642 26.2263 3.10842C22.8467 3.11602 20.0463 4.75762 17.9367 7.04322C16.6431 8.44482 15.8071 9.97602 15.1355 11.7248C14.6003 12.8804 14.1651 15.528 14.3091 17.64C14.4459 17.1284 14.4943 16.2224 14.6187 15.62C15.3407 12.4976 17.0563 9.54242 19.5671 7.73602C20.7999 6.84962 22.0507 6.20482 23.7255 5.85762Z" fill="#565ADD"/>
<path fill-rule="evenodd" clip-rule="evenodd" d="M27.8808 8.69932C28.506 8.81412 29.1584 9.00572 29.718 9.24492C30.8688 9.73932 31.094 10.1625 31.3 10.0537C32.1668 9.59652 33.0336 9.13892 33.9 8.68132C33.4528 8.15452 31.992 7.40132 31.2328 7.09452C28.0992 5.82892 24.8868 6.29452 22.0716 7.61692C20.3452 8.42772 18.9936 9.53132 17.7136 10.8981C16.782 11.7669 15.3816 14.0553 14.7188 16.0661C15.0388 15.6441 15.4244 14.8229 15.7668 14.3117C17.612 11.6913 20.314 9.60052 23.3212 8.87292C24.7964 8.51612 26.1988 8.39012 27.8808 8.69932Z" fill="#565ADD"/>
<path fill-rule="evenodd" clip-rule="evenodd" d="M30.6435 12.6564C31.1967 12.9716 31.7495 13.3668 32.1983 13.7776C33.1223 14.6236 33.1955 15.0968 33.4251 15.0624C34.3947 14.9164 35.3635 14.77 36.3331 14.624C36.0835 13.9796 34.9531 12.7864 34.3375 12.2468C31.7967 10.0184 28.6099 9.39885 25.5163 9.71925C23.6191 9.91565 21.9791 10.512 20.3199 11.3804C19.1539 11.8932 17.0775 13.5924 15.7891 15.2724C16.2299 14.9788 16.8651 14.3308 17.3567 13.9612C19.9627 12.0956 23.2035 11.0124 26.2819 11.3168C27.7927 11.4668 29.1579 11.8096 30.6435 12.6564Z" fill="#565ADD"/>
<path fill-rule="evenodd" clip-rule="evenodd" d="M31.826 17.6032C32.214 18.108 32.5712 18.6868 32.826 19.2388C33.3504 20.3764 33.2344 20.8416 33.46 20.8988C34.41 21.1392 35.36 21.3796 36.31 21.6196C36.3304 20.9288 35.7492 19.3912 35.3908 18.6556C33.9104 15.6172 31.212 13.8128 28.2352 12.9104C26.41 12.3572 24.6672 12.2728 22.8012 12.4312C21.528 12.4528 18.9556 13.2152 17.1172 14.2656C17.6372 14.166 18.4736 13.814 19.0704 13.6636C22.1948 12.952 25.6024 13.2076 28.3232 14.6804C29.6576 15.4028 30.784 16.248 31.826 17.6032Z" fill="#565ADD"/>
<path fill-rule="evenodd" clip-rule="evenodd" d="M31.1738 22.4544C31.3634 23.0612 31.4982 23.728 31.5466 24.3344C31.6458 25.5832 31.3766 25.9796 31.5682 26.1108C32.377 26.6648 33.1854 27.2188 33.9942 27.7724C34.2518 27.1308 34.2374 25.4872 34.1554 24.6728C33.8158 21.3104 31.907 18.6852 29.425 16.81C27.903 15.6604 26.2974 14.9788 24.491 14.4828C23.2882 14.0632 20.611 13.8904 18.5234 14.2408C19.0458 14.3268 19.9522 14.2856 20.5642 14.3504C23.7422 14.7624 26.8514 16.1792 28.8958 18.5008C29.899 19.64 30.6642 20.822 31.1738 22.4544Z" fill="#565ADD"/>
<path fill-rule="evenodd" clip-rule="evenodd" d="M28.7234 26.8735C28.6686 27.5067 28.5402 28.1751 28.3546 28.7543C27.9718 29.9471 27.5722 30.2115 27.6998 30.4059C28.2378 31.2255 28.7754 32.0447 29.313 32.8639C29.7946 32.3687 30.4062 30.8427 30.6394 30.0579C31.6022 26.8187 30.8334 23.6647 29.2498 20.9875C28.2786 19.3463 27.0514 18.1059 25.5694 16.9611C24.6162 16.1159 22.2046 14.9395 20.1406 14.4707C20.591 14.7487 21.4454 15.0547 21.9866 15.3471C24.7706 16.9351 27.1082 19.4267 28.1178 22.3507C28.6134 23.7859 28.8718 25.1699 28.7234 26.8735Z" fill="#565ADD"/>
<path fill-rule="evenodd" clip-rule="evenodd" d="M25.0476 29.9822C24.7872 30.5626 24.4468 31.1514 24.0812 31.6374C23.328 32.6386 22.8632 32.757 22.92 32.9826C23.1584 33.933 23.3976 34.8834 23.636 35.8342C24.2536 35.5242 25.3324 34.2838 25.8104 33.6198C27.784 30.8762 28.0944 27.6446 27.478 24.5962C27.1 22.7266 26.3488 21.1518 25.3252 19.5838C24.7024 18.4726 22.8116 16.5694 21.0156 15.4482C21.35 15.8586 22.056 16.4286 22.4708 16.8826C24.5784 19.297 25.9684 22.4182 25.9612 25.5118C25.9576 27.0298 25.7472 28.4218 25.0476 29.9822Z" fill="#565ADD"/>
<path fill-rule="evenodd" clip-rule="evenodd" d="M20.2511 31.6225C19.7879 32.0589 19.2475 32.4717 18.7235 32.7805C17.6439 33.4161 17.1699 33.3477 17.1351 33.5777C16.9911 34.5473 16.8471 35.5165 16.7031 36.4861C17.3923 36.4365 18.8643 35.7049 19.5607 35.2745C22.4355 33.4977 23.9611 30.6325 24.5611 27.5805C24.9291 25.7093 24.8395 23.9669 24.4951 22.1257C24.3463 20.8605 23.3299 18.3773 22.1011 16.6533C22.2523 17.1609 22.6859 17.9581 22.8951 18.5365C23.9159 21.5749 24.0023 24.9901 22.8091 27.8445C22.2239 29.2449 21.4955 30.4501 20.2511 31.6225Z" fill="#565ADD"/>
<path fill-rule="evenodd" clip-rule="evenodd" d="M15.3562 31.4345C14.7702 31.6837 14.1206 31.8837 13.5222 31.9921C12.2894 32.2145 11.8682 31.9861 11.7562 32.1901C11.2854 33.0493 10.8146 33.9093 10.3438 34.7685C11.0078 34.9613 12.6418 34.7841 13.4442 34.6217C16.7558 33.9497 19.1794 31.7905 20.799 29.1341C21.7918 27.5061 22.311 25.8405 22.625 23.9941C22.923 22.7557 22.8298 20.0741 22.2734 18.0312C22.2402 18.5601 22.371 19.4577 22.367 20.0733C22.2726 23.2765 21.1714 26.5109 19.0638 28.7757C18.0298 29.8869 16.9294 30.7653 15.3562 31.4345Z" fill="#565ADD"/>
<path fill-rule="evenodd" clip-rule="evenodd" d="M10.7045 29.4029C10.0681 29.4089 9.39088 29.3445 8.79688 29.2149C7.57328 28.9477 7.27168 28.5749 7.09008 28.7205C6.32568 29.3337 5.56128 29.9469 4.79688 30.5605C5.33608 30.9925 6.91328 31.4557 7.71608 31.6133C11.0329 32.2633 14.0993 31.1977 16.6133 29.3661C18.1549 28.2433 19.2733 26.9037 20.2713 25.3197C21.0217 24.2905 21.9633 21.7777 22.2333 19.6777C21.9997 20.1533 21.7761 21.0329 21.5365 21.5993C20.2209 24.5217 17.9637 27.0861 15.1489 28.3693C13.7673 28.9993 12.4141 29.3885 10.7045 29.4029Z" fill="#565ADD"/>
<path fill-rule="evenodd" clip-rule="evenodd" d="M7.2725 26.0294C6.6697 25.8254 6.0513 25.5426 5.5325 25.225C4.4649 24.5706 4.3021 24.1194 4.0829 24.197C3.1593 24.5254 2.2361 24.853 1.3125 25.1814C1.6797 25.767 3.0173 26.7226 3.7241 27.135C6.6429 28.8386 9.8893 28.8402 12.8653 27.9358C14.6905 27.3818 16.1865 26.4842 17.6501 25.3158C18.6965 24.5894 20.4117 22.5262 21.3565 20.6318C20.9801 21.0038 20.4797 21.761 20.0673 22.2174C17.8641 24.5458 14.8897 26.2262 11.8093 26.5134C10.2981 26.6542 8.8921 26.5774 7.2725 26.0294Z" fill="#565ADD"/>
<path fill-rule="evenodd" clip-rule="evenodd" d="M5.1912 21.4216C4.7112 21.004 4.2468 20.5076 3.8872 20.0164C3.148 19.0056 3.1692 18.5264 2.9372 18.5156C1.9576 18.4684 0.9788 18.4212 0 18.374C0.1176 19.0548 0.9916 20.4468 1.4892 21.0972C3.542 23.7816 6.5448 25.0156 9.6412 25.3092C11.54 25.49 13.2648 25.2276 15.0624 24.7028C16.3064 24.4288 18.6764 23.1716 20.27 21.778C19.78 21.9788 19.03 22.4892 18.4748 22.7548C15.5532 24.0716 12.1632 24.4968 9.2044 23.5924C7.7528 23.1488 6.4816 22.5436 5.1912 21.4216Z" fill="#565ADD"/>
<path fill-rule="evenodd" clip-rule="evenodd" d="M4.92379 16.5345C4.61779 15.9769 4.35299 15.3505 4.18539 14.7653C3.84099 13.5613 4.02659 13.1189 3.81219 13.0285C2.90979 12.6457 2.00739 12.2633 1.10499 11.8809C0.979794 12.5605 1.31939 14.1689 1.56139 14.9505C2.56099 18.1789 4.95219 20.3745 7.75659 21.7205C9.47619 22.5453 11.1854 22.8953 13.0534 23.0233C14.3158 23.1961 16.9742 22.8349 18.9514 22.0773C18.4222 22.0969 17.5418 22.3169 16.9294 22.3745C13.7326 22.6009 10.4042 21.8285 7.94019 19.9581C6.73099 19.0401 5.74659 18.0333 4.92379 16.5345Z" fill="#565ADD"/>
<path fill-rule="evenodd" clip-rule="evenodd" d="M6.50454 11.702C6.43774 11.0692 6.43694 10.3896 6.50854 9.78519C6.65694 8.54199 6.99894 8.20599 6.83654 8.03919C6.15254 7.33719 5.46894 6.63519 4.78494 5.93359C4.40654 6.51119 4.09694 8.12599 4.01774 8.94039C3.68934 12.304 5.04454 15.254 7.10934 17.58C8.37534 19.0064 9.81614 19.9904 11.4893 20.832C12.5861 21.48 15.1769 22.1756 17.2933 22.2428C16.7981 22.0556 15.9009 21.9176 15.3141 21.734C12.2785 20.7052 9.50894 18.7052 7.96054 16.0264C7.20134 14.712 6.68334 13.4028 6.50454 11.702Z" fill="#565ADD"/>
<path fill-rule="evenodd" clip-rule="evenodd" d="M9.55463 7.96144C9.70023 7.34184 9.92303 6.69944 10.1906 6.15304C10.7406 5.02784 11.1742 4.82344 11.0758 4.61264C10.6618 3.72464 10.2474 2.83624 9.83303 1.94824C9.28503 2.36904 8.46063 3.79104 8.11703 4.53424C6.69823 7.60144 7.00543 10.833 8.18783 13.7102C8.91263 15.4742 9.94823 16.8782 11.2502 18.2242C12.0722 19.1974 14.289 20.7086 16.2646 21.4694C15.859 21.1298 15.0578 20.7034 14.5638 20.3366C12.0374 18.3646 10.0818 15.563 9.50383 12.5238C9.21983 11.0326 9.16263 9.62584 9.55463 7.96144Z" fill="#565ADD"/>
<path fill-rule="evenodd" clip-rule="evenodd" d="M13.9317 5.4656C14.3001 4.9468 14.7493 4.4356 15.2021 4.03C16.1357 3.1948 16.6145 3.1692 16.6029 2.9368L16.4549 0C15.7889 0.1836 14.4897 1.1904 13.8917 1.7496C11.4217 4.056 10.4885 7.1656 10.5001 10.2756C10.5069 12.1828 10.9373 13.8736 11.6365 15.6112C12.0313 16.8224 13.5157 19.0572 15.0589 20.5064C14.8109 20.0388 14.2289 19.3424 13.9101 18.816C12.3129 16.038 11.5569 12.706 12.1657 9.6728C12.4649 8.1844 12.9421 6.86 13.9317 5.4656Z" fill="#565ADD"/>
</svg>
