<svg width="343" height="113" viewBox="0 0 343 113" fill="none" xmlns="http://www.w3.org/2000/svg">
<rect y="0.00170898" width="25.7778" height="25.7778" rx="3" fill="#D8D8E0"/>
<rect x="28.7778" y="0.00170898" width="25.7778" height="25.7778" rx="3" fill="#565ADD"/>
<rect x="57.5555" y="0.00170898" width="25.7778" height="25.7778" rx="3" fill="#E3E4F4"/>
<rect x="86.3333" y="0.00170898" width="25.7778" height="25.7778" rx="3" fill="#E3E4F4"/>
<rect x="115.111" y="0.00170898" width="25.7778" height="25.7778" rx="3" fill="#565ADD"/>
<rect x="143.889" y="0.00170898" width="25.7778" height="25.7778" rx="3" fill="#565ADD"/>
<rect x="172.667" y="0.00170898" width="25.7778" height="25.7778" rx="3" fill="#E3E4F4"/>
<rect x="201.444" y="0.00170898" width="25.7778" height="25.7778" rx="3" fill="#565ADD"/>
<rect x="230.222" y="0.00170898" width="25.7778" height="25.7778" rx="3" fill="#565ADD"/>
<rect x="259" y="0.00170898" width="25.7778" height="25.7778" rx="3" fill="#E3E4F4"/>
<rect x="287.778" y="0.00170898" width="25.7778" height="25.7778" rx="3" fill="#565ADD"/>
<rect x="316.555" y="0.00170898" width="25.7778" height="25.7778" rx="3" fill="#565ADD"/>
<rect y="28.783" width="25.7778" height="25.7778" rx="3" fill="#A9ACEC"/>
<rect x="28.7778" y="28.783" width="25.7778" height="25.7778" rx="3" fill="#E3E4F4"/>
<rect x="57.5555" y="28.783" width="25.7778" height="25.7778" rx="3" fill="#565ADD"/>
<rect x="86.3333" y="28.783" width="25.7778" height="25.7778" rx="3" fill="#E3E4F4"/>
<rect x="115.111" y="28.783" width="25.7778" height="25.7778" rx="3" fill="#565ADD"/>
<rect x="143.889" y="28.783" width="25.7778" height="25.7778" rx="3" fill="#A9ACEC"/>
<rect x="172.667" y="28.783" width="25.7778" height="25.7778" rx="3" fill="#565ADD"/>
<rect x="201.444" y="28.783" width="25.7778" height="25.7778" rx="3" fill="#565ADD"/>
<rect x="230.222" y="28.783" width="25.7778" height="25.7778" rx="3" fill="#E3E4F4"/>
<rect x="259" y="28.783" width="25.7778" height="25.7778" rx="3" fill="#E3E4F4"/>
<rect x="287.778" y="28.783" width="25.7778" height="25.7778" rx="3" fill="#565ADD"/>
<rect x="316.555" y="28.783" width="25.7778" height="25.7778" rx="3" fill="#E3E4F4"/>
<rect y="57.5642" width="25.7778" height="25.7778" rx="3" fill="#A9ACEC"/>
<rect x="28.7778" y="57.5642" width="25.7778" height="25.7778" rx="3" fill="#E3E4F4"/>
<rect x="57.5555" y="57.5642" width="25.7778" height="25.7778" rx="3" fill="#565ADD"/>
<rect x="86.3333" y="57.5642" width="25.7778" height="25.7778" rx="3" fill="#565ADD"/>
<rect x="115.111" y="57.5642" width="25.7778" height="25.7778" rx="3" fill="#565ADD"/>
<rect x="143.889" y="57.5642" width="25.7778" height="25.7778" rx="3" fill="#565ADD"/>
<rect x="172.667" y="57.5642" width="25.7778" height="25.7778" rx="3" fill="#565ADD"/>
<rect x="201.444" y="57.5642" width="25.7778" height="25.7778" rx="3" fill="#565ADD"/>
<rect x="230.222" y="57.5642" width="25.7778" height="25.7778" rx="3" fill="#A9ACEC"/>
<rect x="259" y="57.5642" width="25.7778" height="25.7778" rx="3" fill="#A9ACEC"/>
<rect x="287.778" y="57.5642" width="25.7778" height="25.7778" rx="3" fill="#565ADD"/>
<rect x="316.555" y="57.5642" width="25.7778" height="25.7778" rx="3" fill="#565ADD"/>
<rect y="86.3452" width="25.7778" height="25.7778" rx="3" fill="#D8D8E0"/>
<rect x="28.7778" y="86.3452" width="25.7778" height="25.7778" rx="3" fill="#565ADD"/>
<rect x="57.5555" y="86.3452" width="25.7778" height="25.7778" rx="3" fill="#565ADD"/>
<rect x="86.3333" y="86.3452" width="25.7778" height="25.7778" rx="3" fill="#A9ACEC"/>
<rect x="115.111" y="86.3452" width="25.7778" height="25.7778" rx="3" fill="#E3E4F4"/>
<rect x="143.889" y="86.3452" width="25.7778" height="25.7778" rx="3" fill="#E3E4F4"/>
<rect x="172.667" y="86.3452" width="25.7778" height="25.7778" rx="3" fill="#E3E4F4"/>
<rect x="201.444" y="86.3452" width="25.7778" height="25.7778" rx="3" fill="#565ADD"/>
<rect x="230.222" y="86.3452" width="25.7778" height="25.7778" rx="3" fill="#A9ACEC"/>
<rect x="259" y="86.3452" width="25.7778" height="25.7778" rx="3" fill="#E3E4F4"/>
<rect x="287.778" y="86.3452" width="25.7778" height="25.7778" rx="3" fill="#E3E4F4"/>
<rect x="316.555" y="86.3452" width="25.7778" height="25.7778" rx="3" fill="#E3E4F4"/>
</svg>

