<svg width="10" height="10" viewBox="0 0 10 10" fill="none" xmlns="http://www.w3.org/2000/svg">
<path d="M4.36794 9.21601C4.27994 8.69601 4.04794 8.13601 3.67194 7.53601C3.29594 6.92801 2.75994 6.36401 2.06394 5.84401C1.37594 5.32401 0.68794 4.99201 -6.05136e-05 4.84801V4.34401C0.67994 4.18401 1.33194 3.88801 1.95594 3.45601C2.58794 3.01601 3.11594 2.48801 3.53994 1.872C3.97194 1.24001 4.24794 0.616005 4.36794 5.48363e-06H4.87194C4.94394 0.400005 5.08794 0.812005 5.30394 1.23601C5.51994 1.65201 5.79594 2.05201 6.13194 2.43601C6.47594 2.81201 6.85994 3.15201 7.28394 3.45601C7.91594 3.90401 8.55994 4.20001 9.21594 4.34401V4.84801C8.77594 4.93601 8.31994 5.11601 7.84794 5.38801C7.38394 5.66001 6.95194 5.98401 6.55194 6.36001C6.15194 6.72801 5.82394 7.11601 5.56794 7.52401C5.19194 8.12401 4.95994 8.68801 4.87194 9.21601H4.36794Z" fill="#565ADD"/>
</svg>
