<svg
  width="20"
  height="20"
  viewBox="0 0 24 24"
  fill="none"
  xmlns="http://www.w3.org/2000/svg"
>
  <path
    d="M20.52 3.48A11.82 11.82 0 0012.06 0C5.52 0 .2 5.3.2 11.84c0 2.08.54 4.1 1.56 5.88L0 24l6.45-1.7a11.84 11.84 0 005.6 1.43h.01c6.53 0 11.84-5.31 11.84-11.84 0-3.16-1.23-6.13-3.38-8.41z"
    fill="#25D366"
  />
  <path
    d="M17.04 13.93c-.28-.14-1.65-.81-1.91-.9-.25-.1-.44-.14-.63.14-.18.28-.72.9-.88 1.08-.16.19-.32.21-.6.07-.28-.14-1.18-.44-2.24-1.41-.83-.74-1.38-1.66-1.54-1.94-.16-.28-.02-.43.12-.57.13-.13.28-.32.42-.48.14-.16.18-.28.28-.46.09-.18.05-.35-.02-.49-.07-.14-.63-1.53-.86-2.1-.23-.55-.47-.48-.64-.49h-.55c-.18 0-.49.07-.74.35-.25.28-.95.93-.95 2.27s.97 2.63 1.11 2.81c.14.18 1.9 2.9 4.6 4.06.64.28 1.15.45 1.54.58.65.21 1.24.18 1.71.11.52-.08 1.65-.67 1.88-1.31.23-.63.23-1.18.16-1.3-.07-.11-.25-.18-.53-.32z"
    fill="white"
  />
</svg>