<svg width="36" height="36" viewBox="0 0 36 36" fill="none" xmlns="http://www.w3.org/2000/svg">
<rect width="36" height="36" rx="10" fill="#EEF2FD"/>
<path d="M12 14.25H24M12 18H24M12 21.75H24" stroke="#3151B8" stroke-width="1.5" stroke-linecap="round" stroke-linejoin="round"/>
<path d="M15 15.375C15.6213 15.375 16.125 14.8713 16.125 14.25C16.125 13.6287 15.6213 13.125 15 13.125C14.3787 13.125 13.875 13.6287 13.875 14.25C13.875 14.8713 14.3787 15.375 15 15.375Z" fill="#3151B8" stroke="#3151B8" stroke-width="1.5" stroke-linecap="round" stroke-linejoin="round"/>
<path d="M19.5 19.125C20.1213 19.125 20.625 18.6213 20.625 18C20.625 17.3787 20.1213 16.875 19.5 16.875C18.8787 16.875 18.375 17.3787 18.375 18C18.375 18.6213 18.8787 19.125 19.5 19.125Z" fill="#3151B8" stroke="#3151B8" stroke-width="1.5" stroke-linecap="round" stroke-linejoin="round"/>
<path d="M16.5 22.875C17.1213 22.875 17.625 22.3713 17.625 21.75C17.625 21.1287 17.1213 20.625 16.5 20.625C15.8787 20.625 15.375 21.1287 15.375 21.75C15.375 22.3713 15.8787 22.875 16.5 22.875Z" fill="#3151B8" stroke="#3151B8" stroke-width="1.5" stroke-linecap="round" stroke-linejoin="round"/>
</svg>
