<svg width="6" height="7" viewBox="0 0 6 7" fill="none" xmlns="http://www.w3.org/2000/svg">
<path d="M5.5474 3.0427C5.5474 3.68864 5.42496 4.23817 5.18008 4.6913C4.93713 5.14442 4.60548 5.49053 4.18513 5.72963C3.76672 5.96679 3.29624 6.08538 2.7737 6.08538C2.2473 6.08538 1.7749 5.96583 1.35648 5.72674C0.938063 5.48764 0.607378 5.14153 0.364426 4.68841C0.121475 4.23528 -1.29906e-06 3.68671 -1.29906e-06 3.0427C-1.29906e-06 2.39675 0.121475 1.84722 0.364426 1.39409C0.607378 0.94097 0.938063 0.595824 1.35648 0.358657C1.7749 0.119561 2.2473 1.36537e-05 2.7737 1.36537e-05C3.29624 1.36537e-05 3.76672 0.119561 4.18513 0.358657C4.60548 0.595824 4.93713 0.94097 5.18008 1.39409C5.42496 1.84722 5.5474 2.39675 5.5474 3.0427ZM4.27769 3.0427C4.27769 2.62428 4.21502 2.27142 4.08969 1.98412C3.96628 1.69682 3.79178 1.47893 3.56618 1.33046C3.34059 1.18199 3.07642 1.10776 2.7737 1.10776C2.47097 1.10776 2.20681 1.18199 1.98121 1.33046C1.75561 1.47893 1.58015 1.69682 1.45482 1.98412C1.33141 2.27142 1.26971 2.62428 1.26971 3.0427C1.26971 3.46111 1.33141 3.81397 1.45482 4.10127C1.58015 4.38857 1.75561 4.60646 1.98121 4.75493C2.20681 4.9034 2.47097 4.97763 2.7737 4.97763C3.07642 4.97763 3.34059 4.9034 3.56618 4.75493C3.79178 4.60646 3.96628 4.38857 4.08969 4.10127C4.21502 3.81397 4.27769 3.46111 4.27769 3.0427Z" fill="white"/>
</svg>
